<svg xmlns="http://www.w3.org/2000/svg" width="272.967" height="293.804" viewBox="0 0 272.967 293.804"><g transform="translate(-111.43 -103.23)"><rect width="269.967" height="290.804" transform="translate(112.93 104.73)" fill="#f9f4f0"/><path d="M113.742,397.034H382.085a2.263,2.263,0,0,0,2.312-2.211V105.441a2.264,2.264,0,0,0-2.312-2.211H113.742a2.264,2.264,0,0,0-2.312,2.211V394.823A2.263,2.263,0,0,0,113.742,397.034Zm266.031-4.422H116.053V107.652h263.72Z" transform="translate(0 0)" fill="#454244" fill-rule="evenodd"/><path d="M0,0H200.887V212.914H0Z" transform="translate(147.47 143.77)" fill="#f9f4f0"/><path d="M148.841,358.184H347.025a2.754,2.754,0,0,0,2.831-2.667V144.937a2.753,2.753,0,0,0-2.831-2.667H148.841a2.753,2.753,0,0,0-2.831,2.667v210.58A2.754,2.754,0,0,0,148.841,358.184Zm195.277-5.334H151.6V147.6H344.119Z" transform="translate(0 0)" fill="#454244" fill-rule="evenodd"/><path d="M221.84,250.4a1.489,1.489,0,0,1-1.13-.52c-23.1-26.55-30.83-70-30.9-70.44a1.5,1.5,0,1,1,2.95-.51c.08.42,7.67,43.07,30.21,69a1.5,1.5,0,0,1-.15,2.12A1.459,1.459,0,0,1,221.84,250.4Z" transform="translate(52.306 55.525)" fill="#454244"/><path d="M199.27,209.51h-.15c-12.75-1.25-18.68-9.16-18.93-9.49a1.5,1.5,0,1,1,2.41-1.78c.06.07,5.46,7.17,16.82,8.29a1.5,1.5,0,1,1-.15,3Z" transform="translate(42.004 47.567)" fill="#454244"/><path d="M198.29,230.881c-8.83,0-13.46-3.48-13.71-3.68a1.51,1.51,0,0,1-.27-2.1,1.49,1.49,0,0,1,2.1-.27c.12.09,7.37,5.38,21.18,1.78a1.5,1.5,0,0,1,.76,2.9A39.478,39.478,0,0,1,198.29,230.881Z" transform="translate(45.851 59.38)" fill="#454244"/><path d="M195.19,196.91a1.5,1.5,0,1,1-.2-3c.14,0,6.55-1.14,11.78-12.17a1.5,1.5,0,1,1,2.71,1.28c-6,12.72-13.77,13.82-14.1,13.86Z" transform="translate(48.893 40.004)" fill="#454244"/><path d="M204.57,222.561a1.5,1.5,0,0,1-.75-2.8c11.1-6.38,10.52-20,10.52-20.13a1.5,1.5,0,1,1,3-.16c0,.63.71,15.57-12,22.89A1.416,1.416,0,0,1,204.57,222.561Z" transform="translate(53.937 51.241)" fill="#454244"/><path d="M215.46,212.33a9.21,9.21,0,0,1-2.12-.2,1.481,1.481,0,0,1-1.11-1.8,1.511,1.511,0,0,1,1.8-1.12c.24.06,5.48,1.15,10.87-4.16a1.5,1.5,0,1,1,2.11,2.13C222.54,211.53,218.03,212.33,215.46,212.33Z" transform="translate(59.681 49.979)" fill="#454244"/><path d="M184.224,175.216a6.1,6.1,0,0,0,6.076,5.565,5.736,5.736,0,0,0,1.58-.21,6.1,6.1,0,1,0-7.656-5.355Zm5.266-3.535a3.21,3.21,0,0,1,.81-.1,3.129,3.129,0,1,1-.81.1Z" transform="translate(42.292 32.993)" fill="#f8bca1" fill-rule="evenodd"/><path d="M175.553,224.072a6.1,6.1,0,0,0,6.057,5.578,6.22,6.22,0,0,0,1.6-.21,6.1,6.1,0,1,0-7.657-5.368Zm5.247-3.522a3.125,3.125,0,0,1,.81-.11h.02a3.044,3.044,0,0,1,1.52.42,3.1,3.1,0,1,1-2.35-.31Z" transform="translate(37.253 57.664)" fill="#f65819" fill-rule="evenodd"/><path d="M223.691,203.135a6.11,6.11,0,0,0,6.089,5.576,6.263,6.263,0,0,0,1.6-.21,6.112,6.112,0,1,0-7.689-5.366Zm5.279-3.524a3.12,3.12,0,0,1,.81-.11h-.01a3.1,3.1,0,0,1,.81,6.1,3,3,0,0,1-2.36-.31,3.1,3.1,0,0,1,.75-5.68Z" transform="translate(65.238 47.088)" fill="#f8bca1" fill-rule="evenodd"/><path d="M208.523,195.472a6.1,6.1,0,0,0,6.057,5.578,6.107,6.107,0,0,0,5.91-7.69,6.1,6.1,0,0,0-11.967,2.112Zm5.257-3.522a3.218,3.218,0,0,1,.8-.1h.01a3.083,3.083,0,1,1-.81.1Z" transform="translate(56.413 43.226)" fill="#454244" fill-rule="evenodd"/><path d="M202.124,178.168a6.1,6.1,0,0,0,6.066,5.572,6.308,6.308,0,0,0,1.6-.21,6.1,6.1,0,1,0-7.666-5.362Zm5.256-3.528a3.12,3.12,0,0,1,.81-.11,3.127,3.127,0,0,1,2.99,2.3l.088,1.118-.4,1.232a3,3,0,0,1-1.88,1.45,3.106,3.106,0,0,1-3.5-4.54A3.128,3.128,0,0,1,207.38,174.64Z" transform="translate(52.695 34.486)" fill="#f65819" fill-rule="evenodd"/><path d="M171.224,197.036A6.1,6.1,0,0,0,177.3,202.6a6.187,6.187,0,0,0,1.59-.21,6.1,6.1,0,1,0-7.666-5.355Zm5.266-3.535a3.213,3.213,0,0,1,.81-.11,3.1,3.1,0,1,1-.81.11Z" transform="translate(34.737 44.009)" fill="#454244" fill-rule="evenodd"/><path d="M165.24,179.75c2.51,0,2.51-3.9,0-3.9S162.73,179.75,165.24,179.75Z" transform="translate(28.71 35.106)" fill="#f8bca1"/><path d="M162.8,229.74c2.51,0,2.52-3.9,0-3.9S160.29,229.74,162.8,229.74Z" transform="translate(27.36 59.271)" fill="#d1c4be"/><path d="M233.28,181.24c2.51,0,2.51-3.9,0-3.9S230.77,181.24,233.28,181.24Z" transform="translate(66.329 35.826)" fill="#d1c4be"/><path d="M237.19,220.06c2.51,0,2.52-3.9,0-3.9S234.68,220.06,237.19,220.06Z" transform="translate(68.492 54.592)" fill="#f65819"/><path d="M186.19,160.24c2.51,0,2.51-3.9,0-3.9S183.67,160.24,186.19,160.24Z" transform="translate(40.292 25.674)" fill="#d1c4be"/><path d="M168.07,263.21a1,1,0,0,1-1-1v-6.44a1,1,0,1,1,2,0v6.44A1,1,0,0,1,168.07,263.21Z" transform="translate(30.453 74.999)" fill="#454244"/><path d="M174.9,263.21a1,1,0,0,1-1-1V245.57a1,1,0,0,1,2,0v16.64A1,1,0,0,1,174.9,263.21Z" transform="translate(34.191 73.899)" fill="#454244"/></g></svg>