<svg xmlns="http://www.w3.org/2000/svg" width="334.309" height="293.804" viewBox="0 0 334.309 293.804"><g transform="translate(-74.358 -196.1)"><path d="M104.5,254.06a15,15,0,0,0-4.4,10.81,15.3,15.3,0,0,0,15.43,14.86H264.05a4.35,4.35,0,0,1,4.35,4.35,4,4,0,0,1-4,4h-150c-12.8,0-23.58-10.1-23.82-22.9a23.339,23.339,0,0,1,23.36-23.83h150a4.4,4.4,0,0,1,4.41,4.41,3.911,3.911,0,0,1-3.91,3.91H115.14A15,15,0,0,0,104.5,254.06Z" transform="translate(0 25.934)" fill="#f8a886" fill-rule="evenodd"/><path d="M114.43,290.059h150a6,6,0,0,0,6.01-5.98,6.36,6.36,0,0,0-6.35-6.35H115.57a13.29,13.29,0,0,1-13.43-12.88,13,13,0,0,1,13-13.19H264.47a5.919,5.919,0,0,0,5.91-5.92,6.41,6.41,0,0,0-6.41-6.41h-150A25.34,25.34,0,0,0,88.61,265.2C88.87,278.909,100.43,290.059,114.43,290.059ZM98.706,249.733a21.358,21.358,0,0,1,15.264-6.4l150.02-.04a2.41,2.41,0,0,1,2.41,2.41,1.91,1.91,0,0,1-1.91,1.92H115.15a17.073,17.073,0,0,0-17.05,17.26,17.3,17.3,0,0,0,17.43,16.83H264.08a2.35,2.35,0,0,1,2.35,2.35,2,2,0,0,1-2,2h-150c-11.83,0-21.6-9.39-21.83-20.94A21.36,21.36,0,0,1,98.706,249.733Z" transform="translate(0 25.423)" fill="#454244" fill-rule="evenodd"/><path d="M262.25,249.649v30.08H114.59a14.769,14.769,0,0,1-14.49-15,15.33,15.33,0,0,1,4.24-10.63,14.22,14.22,0,0,1,10.25-4.41Z" transform="translate(0 27.749)" fill="#f9f4f0"/><path d="M114.59,281.729H262.25a2,2,0,0,0,2-1.93v-30.07a2,2,0,0,0-2-2H114.59a16.181,16.181,0,0,0-11.69,5,17.271,17.271,0,0,0-4.8,12C98.1,274.079,105.5,281.729,114.59,281.729Zm-8.81-26.28a12.155,12.155,0,0,1,8.81-3.79l145.66-.04v26.07H114.59a12.751,12.751,0,0,1-12.49-13A13.25,13.25,0,0,1,105.78,255.449Z" transform="translate(0 27.371)" fill="#454244" fill-rule="evenodd"/><path d="M178.71,262.27v13.42l-6.84-6.28-6.83,6.28V262.27Z" transform="translate(31.673 31.288)" fill="#f9f4f0" fill-rule="evenodd"/><path d="M164.23,277.52a2.089,2.089,0,0,0,.81.17,2.006,2.006,0,0,0,1.33-.53l5.48-5,5.48,5a2,2,0,0,0,3.36-1.47V262.27a2,2,0,0,0-2-2H165.04a2,2,0,0,0-2,2v13.42A2,2,0,0,0,164.23,277.52Zm8.99-9.59a2.012,2.012,0,0,0-2.7,0l-3.48,3.2v-6.86h9.67v6.86Z" transform="translate(31.502 30.994)" fill="#454244" fill-rule="evenodd"/><path d="M196.9,262.17h-4.21a1,1,0,0,1,0-2h4.24a1,1,0,0,1,0,2Z" transform="translate(39.739 28.581)" fill="#454244"/><path d="M188.83,262.17H158.62a1,1,0,0,1,0-2h30.21a1,1,0,0,1,0,2Z" transform="translate(31.542 28.581)" fill="#454244"/><path d="M107.15,265.06a1,1,0,0,1-1-.86,9.18,9.18,0,0,1,2.38-7.08,1,1,0,1,1,1.42,1.41,7.15,7.15,0,0,0-1.86,5.43,1,1,0,0,1-.85,1.13Z" transform="translate(0 27.956)" fill="#454244"/><path d="M213.58,209.83a14.751,14.751,0,0,1,3.68,10c-.08,7.68-6,13.75-12.91,13.75H80.05a3.86,3.86,0,0,0-3.65,4,3.52,3.52,0,0,0,3.33,3.68H205.27c10.71,0,19.73-9.35,19.94-21.2a22.812,22.812,0,0,0-5.72-15.73A18.622,18.622,0,0,0,205.66,198H80.1a3.91,3.91,0,0,0-3.7,4.09,3.46,3.46,0,0,0,3.29,3.74h125A12,12,0,0,1,213.58,209.83Z" fill="#f8a886" fill-rule="evenodd"/><path d="M79.69,243.33H205.27c11.87,0,21.72-10.39,21.97-23.13A24.63,24.63,0,0,0,221,203.1a20.459,20.459,0,0,0-15.31-7H80.11a5.91,5.91,0,0,0-5.7,6.09,5.46,5.46,0,0,0,5.28,5.62H204.64a9.995,9.995,0,0,1,7.41,3.41,12.618,12.618,0,0,1,3.17,8.65c-.07,6.49-4.96,11.78-10.91,11.78H80.01a5.859,5.859,0,0,0-5.65,6A5.521,5.521,0,0,0,79.69,243.33Zm-1.29-5.71a1.87,1.87,0,0,1,1.65-2l124.31.04c8.13,0,14.82-7.06,14.91-15.73a16.611,16.611,0,0,0-4.2-11.37,13.94,13.94,0,0,0-10.38-4.73h-125a1.5,1.5,0,0,1-1.29-1.7,1.929,1.929,0,0,1,1.7-2.09H205.66A16.525,16.525,0,0,1,218,205.72a20.607,20.607,0,0,1,5.21,14.34c-.19,10.61-8.23,19.24-17.94,19.24H79.73A1.56,1.56,0,0,1,78.4,237.62Z" fill="#454244" fill-rule="evenodd"/><path d="M81.55,205.83v27.84H205.14c6.69,0,12.12-6.23,12.12-13.92a15,15,0,0,0-3.55-9.85,11.392,11.392,0,0,0-8.57-4.07Z" fill="#fff"/><path d="M81.55,235.62H205.14c7.78,0,14.12-7.15,14.08-15.87a16.943,16.943,0,0,0-4-11.16,13.3,13.3,0,0,0-10.08-4.76H81.55a2,2,0,0,0-2,2v27.79A2,2,0,0,0,81.55,235.62Zm123.59-4H83.55V207.78H205.14a9.329,9.329,0,0,1,7.06,3.39,13,13,0,0,1,3.06,8.53C215.26,226.27,210.72,231.62,205.14,231.62Z" fill="#454244" fill-rule="evenodd"/><path d="M139.8,217.439h-3.55a1,1,0,0,1,0-2h3.55a1,1,0,0,1,0,2Z" transform="translate(20.565)" fill="#454244"/><path d="M168.29,217.439h-23a1,1,0,0,1,0-2h23a1,1,0,0,1,0,2Z" transform="translate(25.648)" fill="#454244"/><path d="M307.89,302.5a17,17,0,0,1,5,12.27c-.11,9.41-8.08,16.85-17.5,16.85H126.91a4.94,4.94,0,0,0-4.94,4.94,4.5,4.5,0,0,0,4.5,4.51H296.63c14.52,0,26.75-11.46,27-26a26.5,26.5,0,0,0-26.5-27H126.97a5,5,0,0,0-5,5,4.438,4.438,0,0,0,4.44,4.44H295.83A17.005,17.005,0,0,1,307.89,302.5Z" transform="translate(83.001 54.902)" fill="#f9f4f0" fill-rule="evenodd"/><path d="M126.47,343.069H296.63c15.71,0,28.73-12.53,29.03-27.93a28.5,28.5,0,0,0-28.5-29.07H126.97a7,7,0,0,0-7,7,6.44,6.44,0,0,0,6.44,6.44H295.88a15,15,0,0,1,15,15.24,15.329,15.329,0,0,1-15.5,14.87H126.91a6.94,6.94,0,0,0-6.94,6.94A6.51,6.51,0,0,0,126.47,343.069Zm-2.5-6.51a2.94,2.94,0,0,1,2.94-2.94l168.46-.01a19.349,19.349,0,0,0,19.5-18.83,19.02,19.02,0,0,0-19.04-19.27H126.41a2.439,2.439,0,0,1-2.44-2.44,3,3,0,0,1,3-3H297.13a24.511,24.511,0,0,1,24.5,25c-.23,13.23-11.45,24-25,24H126.47A2.509,2.509,0,0,1,123.97,336.559Z" transform="translate(83.001 55.171)" fill="#454244" fill-rule="evenodd"/><path d="M128.94,297.51v34.11H296.45c9.08,0,16.43-7.63,16.43-17.06a17.349,17.349,0,0,0-4.81-12.06,16.1,16.1,0,0,0-11.62-5Z" transform="translate(81.001 53.796)" fill="#f9f4f0"/><path d="M128.94,333.62H296.45c10.17,0,18.43-8.55,18.43-19.06a19.278,19.278,0,0,0-5.37-13.45,18.048,18.048,0,0,0-13.06-5.6H128.94a2,2,0,0,0-2,2v34.11A2,2,0,0,0,128.94,333.62Zm167.51-4H130.94V299.51H296.45a14,14,0,0,1,10.18,4.38,15.3,15.3,0,0,1,4.25,10.67C310.88,322.87,304.45,329.62,296.45,329.62Z" transform="translate(83.001 54.01)" fill="#454244" fill-rule="evenodd"/><path d="M207.89,311.569H192.44a1,1,0,0,1,0-2h15.45a1,1,0,1,1,0,2Z" transform="translate(41.555 50.617)" fill="#454244"/><path d="M310.06,325.34a1,1,0,0,1-.77-.37l-3.91-4.78a1,1,0,1,1,1.55-1.27l3.91,4.78a1.005,1.005,0,0,1-.78,1.64Z" transform="translate(83.001 55.951)" fill="#454244"/><path d="M306.27,328.14a1,1,0,0,1-.78-.37l-6.57-8a1,1,0,1,1,1.55-1.27l6.57,8a1.006,1.006,0,0,1-.77,1.64Z" transform="translate(83.001 56.686)" fill="#454244"/><path d="M302.98,331.35a1,1,0,0,1-.77-.37l-9.45-11.55a1,1,0,1,1,1.55-1.27l9.44,11.56a.994.994,0,0,1-.77,1.63Z" transform="translate(83.001 57.583)" fill="#454244"/><rect width="290.391" height="56.82" rx="10.07" transform="translate(89.18 431.084)" fill="#fc5711"/><path d="M103.979,399.889H364.751c9.275-.005,16.794-5.4,16.809-12.06v-36.69c-.008-6.663-7.529-12.064-16.809-12.07H103.979c-9.28.006-16.8,5.407-16.809,12.07v36.68C87.185,394.481,94.7,399.878,103.979,399.889Zm-11.239-48.75c.008-4.454,5.035-8.064,11.239-8.07l260.772.01c6.2.006,11.23,3.616,11.239,8.07v36.68c-.008,4.455-5.034,8.065-11.239,8.07H103.979c-6.2,0-11.231-3.615-11.239-8.07Z" transform="translate(0 90.015)" fill="#454244" fill-rule="evenodd"/><rect width="29.3" height="56.82" transform="translate(234.938 431.084)" fill="#f9f4f0"/><path d="M191.23,399.889h29.3a2,2,0,0,0,2-2v-56.82a2,2,0,0,0-2-2h-29.3a2,2,0,0,0-2,2v56.82A2,2,0,0,0,191.23,399.889Zm27.3-4h-25.3v-52.82h25.3Z" transform="translate(43.734 90.015)" fill="#454244" fill-rule="evenodd"/><path d="M142.54,368.71a1,1,0,0,1-.69-.27l-4.66-4.41a1,1,0,1,1,1.42-1.41l4.67,4.4a.982.982,0,0,1-.74,1.69Z" transform="translate(21.22 90.015)" fill="#454244"/><path d="M137.87,371.039a1,1,0,0,1-.68-.27l-3.19-3a1,1,0,1,1,1.42-1.41l3.18,3a1,1,0,0,1-.69,1.73Z" transform="translate(20.017 90.015)" fill="#454244"/><path d="M136.89,376.649a1,1,0,0,1-.69-.27l-7.7-7.27a1,1,0,1,1,1.37-1.45l7.7,7.26a1,1,0,0,1-.68,1.73Z" transform="translate(18.478 90.015)" fill="#454244"/><rect width="10.92" height="27.21" rx="1.5" transform="translate(243.946 445.884)" fill="#d4d4d4"/></g></svg>