<svg xmlns="http://www.w3.org/2000/svg" xmlns:xlink="http://www.w3.org/1999/xlink" width="1377" height="1353" viewBox="0 0 1377 1353"><defs><clipPath id="b"><rect width="1377" height="1353"/></clipPath></defs><g id="a" clip-path="url(#b)"><rect width="1377" height="1353" fill="#f9f4f0"/><g transform="translate(420.773 346.827)"><path d="M292.929,121.363l-.147.391v0c-.281.749-.562,1.5-.851,2.232-.1.272-.208.528-.315.787s-.2.5-.3.763a70.465,70.465,0,0,1-11.49,19.32l-.05.059V179.75c-.79,5.07-14,9.09-30.21,9.09s-29.42-4-30.21-9.09V145.025l-.03-.035a70.823,70.823,0,0,1-11.58-19.45l-.067-.162-.054-.131c-.17-.408-.338-.813-.5-1.257-.33-.86-.67-1.75-1-2.63-.46-1.31-.92-2.64-1.35-4l-.69-2.19a81,81,0,0,1-2.6-12.75c-.09-.73-.18-1.48-.26-2.24a4.084,4.084,0,0,0-.043-.5c-.015-.112-.029-.224-.037-.336,0,0-.12-.84-.26-2.29a2.083,2.083,0,0,1,0-.25c-.66-7.28-1.68-28.45,6.87-42.33,10.37-16.81,27.39-21.72,41.79-21.49,14.39-.23,31.41,4.68,41.78,21.49,8.482,13.867,7.472,35.01,6.812,42.309a9.67,9.67,0,0,1,7.258.461c5.3,2.48,7.54,10.81,2.58,18.41C304.185,121.427,297.8,122.471,292.929,121.363ZM269.22,154.37a34.922,34.922,0,0,1-8.561,4.225,34.926,34.926,0,0,0,8.531-4.215,47.778,47.778,0,0,0,8.46-7.1c.083-.086.165-.173.247-.259l-.217.249A47.778,47.778,0,0,1,269.22,154.37Z" fill="#f9f4f0" fill-rule="evenodd"/><path d="M191,115.65c3.79,5.8,10.21,6.83,15.09,5.7q-1.08-3-2.15-6.19a79.559,79.559,0,0,1-2.46-11.7c-.15-1.07-.28-2.16-.4-3.27a8.159,8.159,0,0,1-.08-.84s-.1-.63-.21-1.74v-.55a2.26,2.26,0,0,1,0-.26,9.91,9.91,0,0,0-6-.07,10.309,10.309,0,0,0-1.28.51C188.27,99.72,186,108.05,191,115.65Z" fill="#f9f4f0"/><path d="M192.5,938.47h36.56v22.96H192.5Z" fill="#f9f4f0"/><path d="M268.21,961.43H304.5V938.47H268.21Z" fill="#f9f4f0"/><path d="M116.44,137.91c-.61,5-2.62,12-8.77,16.91a6.12,6.12,0,0,1-5.58,1.2,5.065,5.065,0,0,1-1-.44,1.159,1.159,0,0,0-1.06,0c-.73.37-3.58,1.78-7.33-1.54,0,0-5.13,2.42-8.75-.81,0,0-3.15,3.37-10.29-3.64,0,0-3.37,8.11-6.75,19.21-.956,3.753-1.784,8.425-2.673,13.438-2.113,11.921-4.568,25.768-9.9,33.772,0,0,6.07-5.31,26.93-4.93,0,0,6.83,41.09,0,58.1-43.87-.32-66.06-18-72.44-23.58-9.25-8.06-6.94-18.49-3.91-25.18a154.282,154.282,0,0,0,7.12-19.44c14.28-47.5,50-80.54,50-80.54s4.67-6.49,14.15-4.46c.971.208,2.1.437,3.349.69,8.713,1.765,23.342,4.729,31.921,10.37A11.342,11.342,0,0,1,116.44,137.91Z" fill="#f9f4f0"/><path d="M417.83,269.18c43.87-.32,66.06-18.02,72.44-23.58,9.25-8.08,6.94-18.51,3.94-25.2a155.793,155.793,0,0,1-7.11-19.44c-14.32-47.54-50-80.54-50-80.54s-4.67-6.46-14.15-4.46c-.971.208-2.1.437-3.349.69-8.713,1.765-23.342,4.729-31.921,10.37a11.36,11.36,0,0,0-5.08,10.89c.62,4.97,2.63,12,8.78,16.91a6.12,6.12,0,0,0,5.58,1.2,5.314,5.314,0,0,0,1.05-.44,1.159,1.159,0,0,1,1.06,0c.73.37,3.58,1.78,7.33-1.54,0,0,5.13,2.42,8.75-.81,0,0,3.15,3.36,10.29-3.64,0,0,3.37,8.11,6.75,19.21.956,3.754,1.783,8.427,2.67,13.441,2.108,11.92,4.557,25.765,9.9,33.769,0,0-6.07-5.31-26.93-4.93C417.83,211.08,411,252.18,417.83,269.18Z" fill="#f9f4f0"/><path d="M231.06,938.43a2,2,0,0,0-2-2H192.5a2,2,0,0,0-2,2v23a2,2,0,0,0,2,2h36.56a2,2,0,0,0,2-2Zm75.44,0a2,2,0,0,0-2-2H268.21a2,2,0,0,0-2,2v23a2,2,0,0,0,2,2H304.5a2,2,0,0,0,2-2Zm-4,2H270.21v19H302.5Zm-108,0h32.56v19H194.5Z" fill="#454244" fill-rule="evenodd"/><path d="M234.3,1004.5v-9.051h-79.99v9.051Zm108.39,0v-9.051H262.7v9.051Z" fill="#fff" fill-rule="evenodd"/><path d="M234.348,995.45V965.23a3.8,3.8,0,0,0-3.81-3.77h-13.58v-5a6.26,6.26,0,0,0-4.93-6.1c-9.27-2.03-27.57-2.3-30.9,1.29-4.33,4.71,0,19.55,0,19.55-26.41,3.62-26.78,24.25-26.78,24.25Z" fill="#454244"/><path d="M262.7,995.45V965.23a3.8,3.8,0,0,1,3.81-3.77h13.58v-5a6.259,6.259,0,0,1,4.93-6.1c9.27-2.03,27.57-2.3,30.9,1.29,4.33,4.71,0,19.55,0,19.55,26.41,3.62,26.78,24.25,26.78,24.25Z" fill="#454244"/><path d="M417.829,269.16c-10.26,1.58-26.76,2.89-53.91,0l-10.23,201.13a.741.741,0,0,1-.74.7H146.159a1.151,1.151,0,0,1-1.15-1.1l-7.93-200.73c-14.59,2.84-40.87,2.82-55.86,0,6.83-17,0-58.1,0-58.1s25.81-12.82,64.94-10.21a11.015,11.015,0,0,0,4.18-.53c13-4.27,25.94-11.48,68.94-20.57.79,5.07,14,9.09,30.2,9.09,15.66,0,28.55-3.76,30.1-8.6,0,0,34.38,6.27,62,16.36a11.676,11.676,0,0,0,3.53.39c44.69-1.86,72.77,14.07,72.77,14.07S411,252.15,417.829,269.16Z" fill="#f65819" fill-rule="evenodd"/><path d="M316.57,910.22l25.44-439.23H156.59l26.54,439.23h.04l1.71,28.25h52.25l.28-28.25h-.03l3.58-366.34,11.18-.03,5.65,366.37h-.07l.44,28.25h56.7l1.64-28.25Z" fill="#e2deda"/><g opacity="0.8"><path d="M237.128,938.47l.28-28.25h-54.24l1.71,28.25Z" fill="#e2deda"/><path d="M314.858,938.47l1.64-28.25h-58.78l.44,28.25Z" fill="#e2deda"/></g><path d="M292.979,53.43c-12.29-19.93-32.55-22.61-43.44-22.44-10.99-.17-31.23,2.51-43.53,22.44-7.617,12.369-7.97,29.9-7.43,39.745l.07,1.174a11.878,11.878,0,0,0-4.5.5,12.506,12.506,0,0,0-1.5.6,11.429,11.429,0,0,0-5.88,7.37,17.139,17.139,0,0,0,2.55,13.94,15.291,15.291,0,0,0,13.19,7,18.426,18.426,0,0,0,2.276-.147l.541,1.43c.042.111.085.219.128.324l.385.923a72.668,72.668,0,0,0,11.366,19.332l.064.076v32.509c-28.754,6.163-43.85,11.45-54.647,15.528l-5.133,1.958c-2.749,1.047-5.249,1.963-7.749,2.8a8.887,8.887,0,0,1-3.41.44c-34.994-2.309-59.2,7.353-64.8,9.85l-.6.273c-10.3-.153-17.14,1.09-21.454,2.423l-.516.164c3.366-7.735,5.281-17.833,6.949-27.206l.6-3.414c.772-4.362,1.522-8.439,2.336-11.66,1.894-6.219,3.8-11.525,5.084-14.941l.556-1.459c2.62,2.06,5.05,3.12,7.26,3.06a6.015,6.015,0,0,0,2.1-.41,10.223,10.223,0,0,0,8.159.786l.351-.106c2.7,1.98,5.57,2.42,8.19,1.25a7.394,7.394,0,0,0,1,.39,8.061,8.061,0,0,0,7.42-1.55l.386-.315c6.359-5.29,8.467-12.631,9.114-17.9l.037-.331a13.238,13.238,0,0,0-6.037-12.479c-7.933-5.214-20.592-8.172-29.531-10.028l-6.857-1.4c-8.989-1.731-14.084,3.334-15.412,4.9l-.21.257,0,0c-2.421,2.34-36.553,35.33-50.386,81.307a150.491,150.491,0,0,1-7,19.19c-4.96,10.94-3.39,20.71,4.41,27.51,10.078,8.771,32.819,23.482,72.531,24.058l.824.008.79.145c14.655,2.6,38.679,2.685,53.544.259l7.84,198.43a3.151,3.151,0,0,0,3.15,3h8.512L181.109,910.36a1.99,1.99,0,0,0,.09.486l1.68,27.734a2,2,0,0,0,2,1.88h52.25a2,2,0,0,0,1.99-1.98l.28-28.24a2,2,0,0,0-.044-.438l3.594-363.982h7.22l5.611,363.906a2.007,2.007,0,0,0-.061.494l.44,28.24a2,2,0,0,0,2,2h56.7a2,2,0,0,0,2-1.88l1.619-27.85a2.04,2.04,0,0,0,.061-.37l25.323-437.381h9.147a2.741,2.741,0,0,0,2.74-2.6l10.12-199c20.67,2.11,37.8,2.05,52.32-.19l.031-.005.048-.009c.032-.006.063-.013.094-.021,40.158-.409,63.109-15.242,73.237-24.065,7.81-6.81,9.41-16.58,4.41-27.51a153.362,153.362,0,0,1-7-19.19c-13.139-43.729-44.625-75.707-49.79-80.741l-.59-.569c-.91-1.16-6.21-7.18-16.06-5.07l-6.419,1.312c-8.939,1.856-21.6,4.814-29.531,10.028a13.29,13.29,0,0,0-6,12.81c.68,5.38,2.87,12.92,9.52,18.22a8.08,8.08,0,0,0,7.41,1.56,8.985,8.985,0,0,0,1-.4c2.65,1.17,5.51.75,8.2-1.25,1.82.58,5.36,1.26,8.5-.68a6.108,6.108,0,0,0,2.1.41h.17c2.17,0,4.56-1.06,7.11-3.06,1.25,3.24,3.45,9.19,5.62,16.31.731,2.87,1.389,6.333,2.06,10.054l.91,5.11c1.668,9.373,3.575,19.471,6.95,27.206-4.212-1.356-10.846-2.675-21.129-2.6l-.8.01c-4.473-2.377-31.56-15.725-73.232-13.993a9.34,9.34,0,0,1-2.84-.3c-21.953-8.02-48.431-13.684-58.266-15.655l-2.174-.43V145.731a72.293,72.293,0,0,0,11.429-19.4l.015-.035c.212-.5.38-.9.625-1.555l.416-1.125a18.111,18.111,0,0,0,2.234.145,15.3,15.3,0,0,0,13.18-7.07l.237-.351a17.164,17.164,0,0,0,2.3-13.6,11.353,11.353,0,0,0-5.87-7.35,12.224,12.224,0,0,0-1.91-.73,11.956,11.956,0,0,0-4.035-.381C300.974,84.691,300.889,66.275,292.979,53.43Zm24.39,896.84c4,4.35,2.14,14.63,1,19.27,12.74,2.325,19.179,8.689,22.369,13.849l.141.231a25.691,25.691,0,0,1,3.747,11.331,2,2,0,0,1,.063.5v9.05a2,2,0,0,1-2,2h-80a2,2,0,0,1-2-2V965.23a5.8,5.8,0,0,1,5.8-5.8h11.58v-3a8.211,8.211,0,0,1,6.248-7.993l.252-.057C293.429,946.43,313.1,945.65,317.369,950.27Zm-105.247-1.889.317.069a8.21,8.21,0,0,1,6.5,8.05v3h11.58a5.8,5.8,0,0,1,5.8,5.8v29.81a2,2,0,0,1,.029.34v9.05a2,2,0,0,1-2,2h-80a2,2,0,0,1-2-2v-9.05l0-.087.038-.513c.318-3.479,3.088-21.026,26.25-25.24l-.186-.793c-1.119-4.932-2.6-14.36,1.186-18.477C183.859,945.774,203.118,946.482,212.122,948.381ZM156.349,997.45h76v5.05h-76Zm184.34,0h-76v5.05h76Zm-158.03-28.331c-1.228-4.951-2.474-13.5-.05-16.139,2.34-2.53,18.87-2.92,29-.69a4.22,4.22,0,0,1,3.36,4.14v4.576a2.08,2.08,0,0,0-.039.274,83.618,83.618,0,0,1-1.44,10.7,2,2,0,0,0,1.45,2.42,2.129,2.129,0,0,0,.49.06,2,2,0,0,0,1.95-1.51,85.624,85.624,0,0,0,1.4-9.52h11.768a1.81,1.81,0,0,1,1.8,1.8v28.22h-75.79c.93-4.99,5.21-17.58,24.85-20.3l.089-.015a2.024,2.024,0,0,0,.721.055c.13-.02,13.57-1.34,25.9,4.71a1.94,1.94,0,0,0,.87.2v-.02a2,2,0,0,0,.89-3.79c-11.047-5.429-22.635-5.413-26.639-5.2Zm102.77-16.8a4.219,4.219,0,0,0-3.36,4.14l0,4.734.008.086a82.218,82.218,0,0,0,1.45,10.7,2,2,0,0,1-1.46,2.42,2.112,2.112,0,0,1-.5.06,2,2,0,0,1-1.94-1.51,85.558,85.558,0,0,1-1.4-9.49h-11.74a1.809,1.809,0,0,0-1.8,1.8v28.19h75.76l-.057-.309c-.994-5.19-5.34-17.3-24.763-19.961l-.089-.014-.093-.019a1.975,1.975,0,0,1-.489.053l-1.137-.074c-3.313-.171-14.553-.332-24.942,4.774a1.947,1.947,0,0,1-.87.2,2,2,0,0,1-.89-3.79c11.705-5.748,24-5.385,27.265-5.167l.156-.639c1.285-5.423,2.125-13.03-.111-15.494C312.089,950.48,295.559,950.09,285.429,952.32Zm28.96-40.1h-54.63l.37,24.24h52.85Zm-129.039.019h50.039l-.24,24.221h-48.38ZM338.439,488.43h-178.8l2.121,35.068,1.008-.752c16.231-12.243,21-22.513,21.048-22.625a1,1,0,0,1,1.876.7l-.066.167c-.419.9-5.8,11.963-23.723,24.89L185.019,908.22H235.4l3.552-362.5H227.239a2,2,0,0,1,0-4h41.81a2,2,0,0,1,0,4H254.178l5.581,362.5h54.92l.486-8.391h-8.556a1,1,0,0,1,0-2h8.672L336.81,526.147a102.7,102.7,0,0,1-16.351-14.4,1,1,0,1,1,1.49-1.34,100.385,100.385,0,0,0,15,13.371L339,488.35A2,2,0,0,1,338.439,488.43ZM302.5,898.83a1,1,0,0,0-1-1h-6.47a1,1,0,1,0,0,2h6.47A1,1,0,0,0,302.5,898.83Zm-3.96-187c3.08,2.69,4.29,5.68,3.24,8-.79,1.76-2.74,2.82-5.49,3h-.72a19.015,19.015,0,0,1-7.58-1.79,20.675,20.675,0,0,1-4.19-2.49,1,1,0,1,1,1.22-1.59,18.96,18.96,0,0,0,3.79,2.26,16.271,16.271,0,0,0,7.37,1.59c1.93-.11,3.31-.77,3.78-1.8.64-1.43-.43-3.66-2.73-5.67a1,1,0,1,1,1.31-1.51Zm-98.63,1.51a1,1,0,1,0-1.32-1.51c-3.07,2.69-4.23,5.68-3.23,8,.79,1.78,2.74,2.84,5.49,3h.71a19.011,19.011,0,0,0,7.59-1.79,20.675,20.675,0,0,0,4.19-2.49,1,1,0,1,0-1.23-1.58,18.819,18.819,0,0,1-3.79,2.25l-.433.2a16.273,16.273,0,0,1-6.927,1.391c-1.94-.11-3.31-.8-3.78-1.8C196.529,717.58,197.6,715.34,199.909,713.34ZM314.464,500.006l.055.1a30.892,30.892,0,0,0,2.65,4.35,1,1,0,1,1-1.64,1.15,31.99,31.99,0,0,1-2.83-4.67,1,1,0,0,1,1.765-.934Zm-52.985-27.017h78.41l-.671,11.6a2,2,0,0,0-.779-.157h-76.96Zm-4,0h-15.91V484.43h15.91V479.7h-4.83a1,1,0,1,1,0-2h4.83Zm-98.77,0h78.86v11.44H159.4Zm59.37-290.88-1.88.4c-27.9,6.063-42.439,11.244-52.932,15.23l-4.451,1.7c-2.561.972-4.9,1.844-7.26,2.638a33.376,33.376,0,0,1,4.253,1.819,1,1,0,0,1-.46,1.89,1.077,1.077,0,0,1-.46-.11,35.368,35.368,0,0,0-7.531-2.752,12.543,12.543,0,0,1-1.329-.018c-33.083-2.21-56.677,6.844-62.518,9.364l.328,2.225c1.446,10.149,4.761,38.025.1,53.16l-.062-.009c14.759,2.322,38.58,2.233,52.163-.266a1.98,1.98,0,0,1,.817-.224,27.779,27.779,0,0,0,3.7-.76,2,2,0,0,1,1,3.87q-1.2.326-2.41.561l7.83,198.159h92.3a2.085,2.085,0,0,1,.287-.02h19.91a2.071,2.071,0,0,1,.286.02h91.984l10.082-198.2q-2.077-.358-4.132-.841a2,2,0,1,1,1.07-3.85,68.737,68.737,0,0,0,9.665,1.5l1.085.081a1.978,1.978,0,0,1,.446.069c17.551,1.6,32.4,1.543,45.174-.179q-.227-.752-.428-1.542c-4.367-16.872-.184-46.752.911-53.823a111.9,111.9,0,0,0-18.133-6.995,162.465,162.465,0,0,0-52.35-6.21,13.49,13.49,0,0,1-2.6-.134,67.691,67.691,0,0,0-8.474,2.054,1.258,1.258,0,0,1-.25.05,1,1,0,0,1-.37-1.95q2.453-.771,4.952-1.358a407.984,407.984,0,0,0-44.753-12.409c-1.945,7.057-16.9,13.487-33.009,13.987h-.08a1,1,0,0,1,0-2c16.092-.5,29.476-6.933,31.119-12.422l-2.837-.612c-3.735-.795-6.584-1.358-8.182-1.666-1.669,2.391-5.161,4.242-9.587,5.588l-.445.133a59.835,59.835,0,0,1-11.269,2.117,93.757,93.757,0,0,1-9.879.522C231.189,190.9,220.939,186.65,218.079,182.11Zm109.11,88.23a1.36,1.36,0,0,0-1.36-1.36H280.4a1.359,1.359,0,0,0-1.37,1.36v31.94a21.51,21.51,0,0,0,21.49,21.49h5.18a21.51,21.51,0,0,0,21.49-21.49Zm-136.62,36.57,11.3,13.29a1,1,0,0,1-1.52,1.29l-11.3-13.29a1,1,0,1,1,1.52-1.29Zm90.46-35.93h44.16v31.3a19.511,19.511,0,0,1-19.49,19.49h-5.18a19.51,19.51,0,0,1-19.49-19.49ZM188.3,312.91l6,7.1a1,1,0,0,1-1.52,1.29l-6-7.1a1,1,0,1,1,1.52-1.29Zm129.88-4.25a1,1,0,1,0-1.84-.77,9.262,9.262,0,0,1-6.6,5.44,1,1,0,0,0,.22,1.98l.22-.02A11.283,11.283,0,0,0,318.179,308.66Zm-119.81-1.29,2.79,3.28a1,1,0,0,1-1.52,1.29l-2.79-3.28a1,1,0,1,1,1.52-1.29Zm253.64-.55a1,1,0,0,0-.76-1.84,57.308,57.308,0,0,1-23.59,4.18,1,1,0,1,0,0,2h2A58.805,58.805,0,0,0,452.009,306.82ZM26.829,283.56l.532.3c4.382,2.442,35.3,18.556,77.058,11.777a1.013,1.013,0,0,1,.32,2,129.544,129.544,0,0,1-20.73,1.63c-33.778,0-56.838-13.23-58.126-13.969h0l-.053-.03a1,1,0,0,1,1-1.71Zm445.9,1.66a1,1,0,0,0-1-1.71c-.33.2-32.66,19.38-77.59,12.08a1.013,1.013,0,0,0-.32,2,129.58,129.58,0,0,0,20.76,1.68c33.523,0,56.5-13.032,58.066-14ZM63.529,121.6a1.959,1.959,0,0,1-.166.206l-.661.635C58.1,126.9,26.832,158.4,13.859,201.55a154.693,154.693,0,0,1-7.21,19.69l-.225.5c-2.857,6.467-4.318,15.42,3.625,22.341l.593.51c9.926,8.447,31.613,21.962,69.147,22.57,5.06-15,.8-46.54-.33-54.11h-.37c-17.89,0-23.49,4.43-23.55,4.48a2.007,2.007,0,0,1-2.96-2.64c5.015-7.509,7.411-20.623,9.483-32.339l.7-3.953c.682-3.781,1.358-7.327,2.112-10.3l.317-1.035c2.482-8.037,4.923-14.42,5.979-17.094-2.963-2.555-3.547-3.821-4.306-5.821a4.37,4.37,0,0,1,.42-4.39A4.684,4.684,0,0,1,69,138.61c-3.32-3.06-3.61-5.9-3.63-6.31a2,2,0,0,1,3.982-.444l.03.262c.088.52.758,2.813,4.478,5.152l.2-.366c.1-.172.173-.291.207-.344a2,2,0,0,1,3.38,2.13,6.878,6.878,0,0,0-1.15,3.61,2,2,0,0,1-1.59,2.34,2.587,2.587,0,0,1-.34.04,2,2,0,0,1-2-1.63,5.642,5.642,0,0,1-.087-1.272,3.648,3.648,0,0,0-1.993.562,1.835,1.835,0,0,0,.075.371l.22.585c.552,1.426,1.034,2.229,4.1,4.7a1.991,1.991,0,0,1,.431.479c4.128,3.932,6.476,3.769,7.119,3.331l.087-.1.023-.031c6.622-9.164,6.371-16.8,6.361-17.128v-.01a2.006,2.006,0,0,1,3.983-.449l.017.149v.077c.029.914.281,8.739-6.141,18.313a7.552,7.552,0,0,0,4.718-.3c7.686-8.264,6.211-16.609,6.141-16.964a2,2,0,0,1,3.9-.926l.043.187c.151.792,1.659,9.894-5.952,19.071a3.467,3.467,0,0,0,3.424.088,3.181,3.181,0,0,1,1.012-.315c6.32-9.825,5.979-16.716,5.915-17.575l-.007-.09a2.016,2.016,0,0,1,3.972-.673l.028.163c0,.018,0,.057.006.116.07,1.051.564,8.461-5.623,18.8a4.115,4.115,0,0,0,1.891-.784l.206-.165c5.488-4.383,7.378-10.67,7.963-15.285l.037-.305a9.28,9.28,0,0,0-4.18-9c-8.258-5.429-22.624-8.339-31.215-10.079l-3.376-.691a15.114,15.114,0,0,0-2.6-.3l-.525-.006A11.387,11.387,0,0,0,63.529,121.6ZM417,119.22l6.76-1.379c7.48-1.424,11.3,3.215,11.692,3.712l.105.144a1.45,1.45,0,0,0,.183.193c.4.33,35.4,33.25,49.4,79.65a155.379,155.379,0,0,0,7.21,19.69c2.95,6.5,4.76,15.74-3.4,22.84-9.627,8.4-31.416,22.45-69.692,23.079-4.652-13.838-1.387-41.727.033-51.883l.323-2.226.236.01c16.807,0,22.8,3.941,23.457,4.413l.191.159a2,2,0,0,0,2.872-2.732c-4.542-6.791-6.928-18.189-8.876-28.989l-1.182-6.64c-.724-4.038-1.439-7.821-2.262-11.041-2.032-6.676-4.09-12.323-5.4-15.773l-.85-2.2c2.841-2.436,3.532-3.706,4.236-5.513l.147-.382a4.321,4.321,0,0,0-.42-4.39,4.661,4.661,0,0,0-1.7-1.35c3.088-2.847,3.572-5.5,3.624-6.19l.009-.27a2,2,0,0,0-4-.09s0,.006,0,.017c-.048.232-.557,2.721-4.531,5.243-.1-.189-.191-.348-.262-.47l-.153-.25a2,2,0,0,0-3.38,2.13,6.935,6.935,0,0,1,1.15,3.61,2,2,0,0,0,1.59,2.34,2.538,2.538,0,0,0,.37,0l.166-.006a2,2,0,0,0,1.8-1.584,5.72,5.72,0,0,0,.087-1.274,3.844,3.844,0,0,1,2.023.534,1.134,1.134,0,0,1-.12.58c-.587,1.558-.863,2.284-3.477,4.474l-.515.424a1.993,1.993,0,0,0-.448.332c-4.081,4.006-6.5,4.113-7.321,3.738-6.276-8.518-6.525-15.75-6.514-17.124l.011-.384a2.006,2.006,0,0,0-4.006-.15c-.028.358-.556,8.417,6.116,18.373a7.279,7.279,0,0,1-4.4-.134l-.248-.083c-6.838-7.293-6.5-14.671-6.274-16.571l.084-.606a2,2,0,0,0-3.938-.629c-.085.414-1.838,9.7,5.919,19.082a3.549,3.549,0,0,1-3.339.2l-.21-.1a3.124,3.124,0,0,0-.822-.262c-5.994-9.319-5.989-16.137-5.931-17.472l.026-.386a2.016,2.016,0,0,0-4.013-.35l0,.024c-.061.608-.818,8.162,5.644,18.922a4.07,4.07,0,0,1-2.191-.966l-.365-.3c-5.268-4.456-7.068-10.752-7.635-15.289a9.329,9.329,0,0,1,4.2-9C396.1,123.85,408.347,121.012,417,119.22Zm2.258,147.929v0h0ZM12.8,227.97a1,1,0,0,1,.71,1.22l-.065.267c-.288,1.287-.645,4.192.395,5.873a2.819,2.819,0,0,0,2,1.3,1,1,0,0,1-.19,2l-.04-.03h-.2a4.842,4.842,0,0,1-3.27-2.22c-1.81-2.91-.61-7.51-.56-7.7A1,1,0,0,1,12.8,227.97Zm476.511,1.086-.091-.386a1,1,0,0,0-1.93.51c.29,1.14.79,4.33-.33,6.14a2.82,2.82,0,0,1-2,1.3,1,1,0,0,0,.21,1.98h.18a4.843,4.843,0,0,0,3.31-2.23C490.187,233.912,489.569,230.25,489.31,229.056ZM221.239,150.05l.03,29.31a.279.279,0,0,1,0,.058l.017.092a1.488,1.488,0,0,0,.065.259c1.147,3.058,11.935,7.071,28.145,7.071l1.052-.006c16.185-.175,26.718-4.359,27.188-7.384V150.083a49.836,49.836,0,0,1-7.451,6.007,37,37,0,0,1-19.71,6.32h-2.11l-.05-.04h-.03a37,37,0,0,1-19.7-6.32A48.748,48.748,0,0,1,221.239,150.05Zm27.38-115.07.88-.05c10-.15,28.74,2.29,40,20.54,8,12.987,7.222,33.151,6.651,40.264l-.071.836v.13l.36.029,1.458.131h-1.818c-.054.568-.106,1.033-.148,1.387l-.1.813v.14c-.007.082-.02.164-.032.25a3.35,3.35,0,0,0-.048.52,81.676,81.676,0,0,1-2.78,14.62c-.63,2.06-1.3,4.06-2,6.06l-.25.68-.74,1.95q-.285.75-.6,1.5a68.429,68.429,0,0,1-10.622,18.128l-.456.552-.092.1c-.74.87-1.42,1.63-2.1,2.34a45.909,45.909,0,0,1-8.1,6.8c-7.641,4.968-14.444,5.683-17.3,5.673l-.287,0h-2a32.939,32.939,0,0,1-17.52-5.67,46.313,46.313,0,0,1-8.1-6.8c-.61-.65-1.27-1.37-2-2.22a68.855,68.855,0,0,1-11.25-18.91l-.4-.991-.2-.509c-.36-.85-.69-1.73-1-2.58l-.076-.218c-.426-1.219-.858-2.457-1.254-3.722-.23-.71-.46-1.44-.68-2.15a79.415,79.415,0,0,1-2.53-12.42c-.054-.432-.108-.872-.162-1.331l-.108-.949-.06-.7a.819.819,0,0,0,0-.14c0-.012-.041-.32-.107-.883l-.143-1.28,0-.171-.007-.093-.111-1.32c-.57-7.5-1.14-27.082,6.69-39.793C220.329,37.8,238.259,34.98,248.619,34.98Zm51.689,63.394-.279.043-.1.806c-.01.083-.02.154-.027.213l-.017.133c-.011.09-.014.184-.017.278a2,2,0,0,1-.053.472,86.978,86.978,0,0,1-2.1,12.264l.065,0a4.362,4.362,0,0,0,3.331-1.872,4.441,4.441,0,0,0,.41-4.53,1,1,0,0,1,1.68-1.09,6.489,6.489,0,0,1-5.43,9.5l-.24.006-.217,0-.04,0-.077-.005q-.157.586-.326,1.174c-.411,1.347-.838,2.686-1.281,4l-.049,0,.048,0h0a11.61,11.61,0,0,0,10.506-4.913l.185-.271a13.143,13.143,0,0,0,2-10.67,7.373,7.373,0,0,0-3.74-4.83,7.871,7.871,0,0,0-1.29-.49,7.538,7.538,0,0,0-2.621-.249Zm-109.621,5.261a7.1,7.1,0,0,1,6.942-5.345,8.754,8.754,0,0,1,1.31.1c.029.276.058.48.082.651.014.094.026.178.036.26l.039.414c.009.078.019.155.03.229a3.5,3.5,0,0,1,.043.445c.12,1.11.25,2.2.4,3.27a.138.138,0,0,0,0,.07l.154,1.117q.568,3.906,1.519,7.742a4.358,4.358,0,0,1-3.6-1.879,4.471,4.471,0,0,1-.41-4.53,1,1,0,0,0-1.68-1.09,6.5,6.5,0,0,0,5.69,9.51,5.116,5.116,0,0,0,.525-.017q.157.575.325,1.147c.41,1.35.83,2.69,1.27,4a11.522,11.522,0,0,1-10.73-5.18l-.212-.313a13.181,13.181,0,0,1-1.788-10.357Zm11.077,10.948c.048,0,.1-.008.145-.013l-.146.012Z" fill="#454244" fill-rule="evenodd"/><path d="M254.84,143.045a.958.958,0,0,1-.74-.355,6.74,6.74,0,0,0-5-1.856,6.89,6.89,0,0,0-5,1.778.943.943,0,0,1-.991.365,1.06,1.06,0,0,1-.744-.814,1.189,1.189,0,0,1,.315-1.107,9.562,9.562,0,0,1,12.89.111,1.206,1.206,0,0,1,.194,1.208A1,1,0,0,1,254.84,143.045Z" fill="#372168"/><g opacity="0.15"><path d="M232.5,114.766c0,6.105-4.477,11.053-10,11.053s-10-4.948-10-11.053,4.477-11.052,10-11.052S232.5,108.662,232.5,114.766Zm54,0c0,6.105-4.477,11.053-10,11.053s-10-4.948-10-11.053,4.477-11.052,10-11.052S286.5,108.662,286.5,114.766Z" fill="#f65819" fill-rule="evenodd"/></g><path d="M294.989,49.771h0s1.17-2.36-.01-8.04-3.54-10.17-10.39-14.9c-6.49-4.47-29.93-14.92-56.07-6.41-21.95,7.15-41.24,24.64-43.24,45.36-1,10.328,4.682,14.046,9.186,16.994,3.4,2.228,6.135,4.017,4.814,7.886-3.07,8.99,5.2,20.34,5.2,20.34a20.424,20.424,0,0,1,4-15.37,17,17,0,0,0,3.21-11.42c-.52-7.19-.14-10.65,2.61-14.94,3.62-5.66,12.2-10.66,24.2-10.66a134.872,134.872,0,0,1,22.174,1.964c9.463,1.459,15.647,2.412,24.056-2.734l.017-.013a.553.553,0,0,1,.233-.127l.041.06c1.777,2.66,6.139,9.19,6.139,15.8a107.917,107.917,0,0,1-.759,11.4c-.651,6.267-1.226,11.8.589,17.08,2.84,8.26,4.53,12.26,4.53,12.26,1.088-6.2,3.782-12.45,6.476-18.7,4.193-9.729,8.383-19.455,6.514-28.958C305.493,51.3,295.34,49.818,294.989,49.771Zm-.542.675c-.848.911-2.959,2.835-8.06,6.312C291.5,53.294,293.607,51.362,294.447,50.446Z" fill="#fac5ae" fill-rule="evenodd"/><path d="M285.8,25.18c6.52,4.5,9.76,9.18,11.21,16.14a25.107,25.107,0,0,1,.569,4.508,20.069,20.069,0,0,0,2.391-6.738,1,1,0,0,1,1.98.28,20.782,20.782,0,0,1-3.34,8.48,18.34,18.34,0,0,1,5.51-.08,1.011,1.011,0,0,1-.181,2.011l-.119-.011a19.483,19.483,0,0,0-3.574-.042c3.667,2.184,8.313,6.815,10.234,16.562,1.786,9.027-1.53,18.109-5.287,26.956l-2.339,5.437c-2.273,5.307-4.455,10.782-5.374,16a2,2,0,0,1-1.74,1.65l-.22-.03a2,2,0,0,1-1.772-1.076l-.143-.324c-.361-.873-1.973-4.828-4.505-12.21-1.972-5.631-1.357-11.487-.707-17.681l.027-.259a107.605,107.605,0,0,0,.74-11.19c0-5.025-2.847-10.113-4.795-13.167l-.332.181-.105.149c-1.771,2.438-7.4,6.273-25.288,8.057l-.1-.05a1,1,0,0,1-.216-1.988l.116-.012c8.293-.827,13.757-2.064,17.356-3.324-4.864.765-9.646.026-15.376-.866a133.142,133.142,0,0,0-21.87-1.94c-12,0-19.51,5-22.52,9.74l-.294.473c-2.085,3.44-2.494,6.322-2.006,13.247A18.735,18.735,0,0,1,210.4,96.442l-.257.358a18.61,18.61,0,0,0-3.712,13.584l.032.166a2.039,2.039,0,0,1-3.522,1.765l-.108-.135c-.366-.494-8.664-12.052-5.587-21.844l.107-.326c.723-2.109-.118-2.959-3.73-5.38l-1.593-1.056c-4.51-3.045-9.759-7.5-8.677-17.984,1.65-16.74,16.08-37.78,44.61-47.07C254.788,9.78,278.808,20.37,285.8,25.18Zm9.939,26.867-.119.12a37.79,37.79,0,0,1-3.833,3.224l-.617.462q-.693.528-1.4,1.031L288.2,57.97l-.446.306.507.809c2.153,3.5,4.9,8.863,4.9,14.475a108.065,108.065,0,0,1-.77,11.61l-.184,1.8c-.533,5.336-.828,10.035.684,14.417l.61,1.763a30.267,30.267,0,0,1,2.53-10.383,22.245,22.245,0,0,0,1.92-12.59,1.011,1.011,0,1,1,2-.3,24.186,24.186,0,0,1-2.07,13.72,29.734,29.734,0,0,0-2.4,13.032q-.18.528-.355,1.058l.355-1.055v0q2.043-6.023,4.645-11.832l.925-2.149c3.821-8.919,7.1-17.4,5.465-25.621C304.316,55.859,298.215,52.8,295.737,52.048ZM229.148,22.32a64.635,64.635,0,0,1,20.08-3.17c16.44,0,29.51,6.07,34.24,9.33l.285.2.279.2a20.1,20.1,0,0,1-19.844,10.2c-.746-.06-1.529-.138-2.352-.225l-1.278-.137c-13.162-1.4-35.184-3.743-49.92,18.171a52.076,52.076,0,0,0-3.65,6.4,1,1,0,0,0,.47,1.34,1.121,1.121,0,0,0,.44.09,1,1,0,0,0,.9-.62l.389-.794A49.079,49.079,0,0,1,212.3,57.96c13.357-19.874,33.239-18.819,46.091-17.506l3.866.406q.912.094,1.753.17a22.02,22.02,0,0,0,21.434-10.66l.179-.3a18.888,18.888,0,0,1,7.417,12.075,15.125,15.125,0,0,1,.265,6.367l-.071.268-.014.036c-.328.4-2.019,2.285-8.622,6.728l-.713.477a2.52,2.52,0,0,0-.255.145l-.406.244c-7.012,4.146-12.32,3.7-20.35,2.487l-1.9-.291a136.534,136.534,0,0,0-22.48-2c-13.62,0-22.31,5.98-25.89,11.58-2.987,4.677-3.4,8.58-2.984,15.2l.064.965a14.82,14.82,0,0,1-2.82,10.09l-.318.439a23.752,23.752,0,0,0-3.862,8.861c-1.61-3.66-2.92-8.39-1.53-12.45,1.658-4.854-1.47-7.427-4.663-9.57l-1.522-1c-.975-.642-1.946-1.3-2.855-2.037-1.512-4.64-1.866-15.461,14.93-33.509a1,1,0,0,0-1.46-1.36c-14.37,15.44-16.743,25.948-16.141,32.112-1.648-2.282-2.614-5.343-2.159-9.952C188.8,50.54,202.338,31.05,229.148,22.32ZM205.943,68.405a1,1,0,0,1,.615,1.275c-.37,1.06-.72,2.16-1,3.28l-.3,1.056c-.359,1.272-.743,2.681-1.14,4.174a1,1,0,0,1-1,.71.783.783,0,0,1-.26,0,1,1,0,0,1-.71-1.22l.671-2.484c.216-.794.425-1.55.628-2.256l.151-.52c.33-1.16.69-2.3,1.07-3.4A1,1,0,0,1,205.943,68.405ZM282.828,42.95a1,1,0,0,0-1.42,0c-4.77,5.1-7.91,5.96-13.59,6.1a35.589,35.589,0,0,1-5.42-.43,41.048,41.048,0,0,0-16,.46,1.024,1.024,0,0,0,.44,2,38.759,38.759,0,0,1,15.32-.43,39.485,39.485,0,0,0,5.23.46l.44-.02c6.14-.16,9.77-1.17,15-6.73A1,1,0,0,0,282.828,42.95Z" fill="#454244" fill-rule="evenodd"/><path d="M249.111,126.9c-5.2,0-10-2.07-12.73-5.55a1.751,1.751,0,1,1,2.74-2.18c2.08,2.61,5.91,4.23,10,4.23s7.92-1.62,10-4.23a1.751,1.751,0,1,1,2.74,2.18C259.081,124.776,254.321,126.9,249.111,126.9Z" fill="#454244"/><path d="M249.473,112.787a6.521,6.521,0,0,1-5.47-2.84,1.75,1.75,0,1,1,2.94-1.9,3.181,3.181,0,0,0,5.08-.05,1.754,1.754,0,1,1,3,1.82A6.461,6.461,0,0,1,249.473,112.787Z" fill="#454244"/><path d="M229.338,100.75c4.44,0,4.449-6.9,0-6.9S224.888,100.75,229.338,100.75Z" fill="#454244"/><path d="M270.306,100.75c4.43,0,4.44-6.9,0-6.9S265.856,100.75,270.306,100.75Z" fill="#454244"/><path d="M238.4,88.8a2,2,0,0,1-.92-.22c-7.87-4.05-16,0-16,0a2,2,0,1,1-1.83-3.56c.4-.2,10-5,19.7,0a2,2,0,0,1-.91,3.78Z" fill="#454244"/><path d="M278.99,88.8a2,2,0,0,1-.91-.22c-7.88-4.05-16,0-16,0a2,2,0,1,1-1.82-3.56c.4-.21,10-5,19.7,0a2,2,0,0,1-.97,3.78Z" fill="#454244"/></g><g transform="translate(-21.99 -112.07)"><path d="M0,0H355.27V252.43H0Z" transform="translate(123.2 219.94)" fill="#f9f4f0"/><path d="M123.19,474.37H478.46a2,2,0,0,0,2-2V219.94a2,2,0,0,0-2-2H123.19a2,2,0,0,0-2,2V472.37A2,2,0,0,0,123.19,474.37Zm353.27-4H125.19V221.94H476.46Z" fill="#f65819" fill-rule="evenodd"/><path d="M224.69,346.18l51.59-64.15a2.289,2.289,0,0,1,3.6.06l50.862,67.746L357.69,385.73a2.181,2.181,0,0,0,3.43.06l43-53.52a2.291,2.291,0,0,1,3.6,0l70.67,94.08v46H123.19l90-111.86" fill="#f9f4f0" fill-rule="evenodd"/><path d="M478.46,474.37H123.19a2,2,0,0,1-1.55-3.25l90-111.86a2,2,0,1,1,3.11,2.51l-87.34,108.6H476.5v-43.3l-70.27-93.54a.248.248,0,0,0-.22-.11.27.27,0,0,0-.22.1l-43,53.52a4.159,4.159,0,0,1-3.25,1.56h-.07a4.17,4.17,0,0,1-3.27-1.67L278.35,283.29a.309.309,0,0,0-.22-.11.248.248,0,0,0-.22.11l-51.59,64.14a2,2,0,0,1-3.12-2.5l51.49-64.1a4.28,4.28,0,0,1,6.76.11L359.3,384.58a.171.171,0,0,0,.13.07.227.227,0,0,0,.14-.07l43-53.52a4.327,4.327,0,0,1,3.41-1.59,4.249,4.249,0,0,1,3.35,1.7L480,425.25a2,2,0,0,1,.4,1.2v46A2,2,0,0,1,478.46,474.37Z" fill="#454244"/><path d="M362.55,312.39a28.27,28.27,0,1,0-28.27-28.27A28.27,28.27,0,0,0,362.55,312.39Z" fill="#f9f4f0"/><path d="M334.576,295.7a30.27,30.27,0,1,0,6.56-32.992A30.271,30.271,0,0,0,334.576,295.7Zm3.7-21.638a26.272,26.272,0,0,1,24.278-16.21v-.02a26.286,26.286,0,1,1-24.278,16.23Z" fill="#454244" fill-rule="evenodd"/><path d="M283.06,401.23a1,1,0,0,1-.76-.35l-13.81-16.24a1,1,0,0,1,1.52-1.3l13.81,16.25a1,1,0,0,1-.76,1.64Z" fill="#f65819"/><path d="M282.19,389.56a1,1,0,0,1-.76-.35l-3.4-4a1,1,0,1,1,1.52-1.29l3.4,4a1,1,0,0,1-.76,1.65Z" fill="#f65819"/><path d="M273.81,401a1,1,0,0,1-.76-.35l-7.38-8.68a1,1,0,1,1,1.52-1.29l7.38,8.67a1,1,0,0,1-.76,1.65Z" fill="#f65819"/></g><g transform="translate(799.99 648.6)"><rect width="357.86" height="503.64" transform="translate(122.22 101.38)" fill="#f9f4f0"/><path d="M121.19,609.02H479.08a2,2,0,0,0,1.97-2V103.38a2,2,0,0,0-2-2H121.19a2,2,0,0,0-2,2V607.02A2,2,0,0,0,121.19,609.02Zm355.89-4H123.22l-.03-499.64H477.08Z" fill="#454244" fill-rule="evenodd"/><rect width="151.81" height="151.81" rx="3.46" transform="translate(149.27 143.04)" fill="#e2deda"/><path d="M152.72,296.83h144.9a5.47,5.47,0,0,0,5.46-5.46V146.47a5.471,5.471,0,0,0-5.46-5.46H152.72a5.46,5.46,0,0,0-5.45,5.46v144.9A5.459,5.459,0,0,0,152.72,296.83Zm-1.45-150.36a1.46,1.46,0,0,1,1.45-1.46h144.9a1.46,1.46,0,0,1,1.46,1.46v144.9a1.46,1.46,0,0,1-1.46,1.46H152.72a1.459,1.459,0,0,1-1.45-1.46Z" fill="#454244" fill-rule="evenodd"/><path d="M300.44,295.21a1,1,0,0,1-.71-.29L149.49,144.68a1,1,0,0,1,1.42-1.41L301.19,293.51a1,1,0,0,1-.7,1.7Z" fill="#454244"/><path d="M267.31,177.83a1.005,1.005,0,0,1-.7-1.71l32.83-32.83a1,1,0,0,1,1.41,1.41l-32.83,32.83A1,1,0,0,1,267.31,177.83Z" fill="#f65819"/><path d="M149.91,295.21a1,1,0,0,1-.71-1.7L258.65,184.06a1,1,0,1,1,1.41,1.41L150.62,294.92A1,1,0,0,1,149.91,295.21Z" fill="#f65819"/><rect width="126.57" height="24.63" rx="2.78" transform="translate(326.78 143.04)" fill="#f9f4f0"/><path d="M329.57,169.67h121a4.79,4.79,0,0,0,4.78-4.78V145.83a4.79,4.79,0,0,0-4.78-4.79h-121a4.79,4.79,0,0,0-4.78,4.79v19.06A4.789,4.789,0,0,0,329.57,169.67Zm-.556-24.4a.784.784,0,0,1,.556-.232h121a.78.78,0,0,1,.78.79v19.06a.78.78,0,0,1-.78.78h-121a.78.78,0,0,1-.78-.78V145.83A.779.779,0,0,1,329.014,145.272Z" fill="#454244" fill-rule="evenodd"/><rect width="126.57" height="24.63" rx="2.78" transform="translate(326.78 184.77)" fill="#f9f4f0"/><path d="M329.57,211.39h121a4.781,4.781,0,0,0,4.78-4.78V187.55a4.781,4.781,0,0,0-4.78-4.78h-121a4.78,4.78,0,0,0-4.78,4.78v19.06A4.78,4.78,0,0,0,329.57,211.39Zm-.78-23.84a.78.78,0,0,1,.78-.78h121a.78.78,0,0,1,.78.78v19.06a.78.78,0,0,1-.78.78h-121a.778.778,0,0,1-.78-.78Z" fill="#454244" fill-rule="evenodd"/><path d="M390.07,294.86a35.78,35.78,0,1,0-35.78-35.78A35.78,35.78,0,0,0,390.07,294.86Z" fill="#f65819" fill-rule="evenodd"/><path d="M355.149,273.509a37.79,37.79,0,1,0,8.186-41.187A37.789,37.789,0,0,0,355.149,273.509Zm3.7-27.394A33.789,33.789,0,0,1,390.07,225.26v.03a33.766,33.766,0,1,1-31.226,20.825Z" fill="#454244" fill-rule="evenodd"/><rect width="302.07" height="24.63" rx="2.99" transform="translate(150.05 323.25)" fill="#fff"/><path d="M153.04,349.88H449.12a5,5,0,0,0,5-5V326.24a5,5,0,0,0-5-5H153.04a5,5,0,0,0-5,5v18.64A5,5,0,0,0,153.04,349.88Zm-1-23.63a1,1,0,0,1,1-1H449.12a1,1,0,0,1,1,1v18.64a1,1,0,0,1-1,1H153.04a1,1,0,0,1-1-1Z" fill="#454244" fill-rule="evenodd"/><rect width="302.07" height="24.63" rx="2.99" transform="translate(150.05 374.85)" fill="#fff"/><path d="M153.04,401.48H449.12a5,5,0,0,0,5-5.01V377.83a5,5,0,0,0-5-5H153.04a5,5,0,0,0-5,5v18.65A5,5,0,0,0,153.04,401.48Zm-1-23.65a1,1,0,0,1,1-1H449.12a1,1,0,0,1,1,1v18.64a1,1,0,0,1-1,1H153.04a1,1,0,0,1-1-1Z" fill="#454244" fill-rule="evenodd"/><path d="M185.91,498.02a35.78,35.78,0,1,0-35.78-35.78A35.78,35.78,0,0,0,185.91,498.02Z" fill="#f8bca1" fill-rule="evenodd"/><path d="M148.12,462.24a37.78,37.78,0,1,0,37.78-37.78A37.78,37.78,0,0,0,148.12,462.24Zm4,0a33.78,33.78,0,1,1,33.78,33.78A33.78,33.78,0,0,1,152.12,462.24Z" fill="#454244" fill-rule="evenodd"/><path d="M444.78,440.63a35.82,35.82,0,1,1-6.63-6.69" fill="#f8bca1" fill-rule="evenodd"/><path d="M416.25,500.02a37.78,37.78,0,1,1,23.13-67.66,2,2,0,0,1-2.45,3.16,33.833,33.833,0,1,0,6.25,6.32,2,2,0,1,1,3.19-2.42,37.78,37.78,0,0,1-30.12,60.6Z" fill="#454244"/><path d="M309.28,484.06a1,1,0,0,1-.76-.36l-13.62-16a1,1,0,0,1,1.52-1.3l13.63,16a1,1,0,0,1-.77,1.65Z" fill="#454244"/><path d="M308.43,472.54a1,1,0,0,1-.76-.35l-3.36-4a1,1,0,1,1,1.52-1.29l3.36,3.95a1,1,0,0,1-.76,1.65Z" fill="#454244"/><path d="M300.19,483.83a1,1,0,0,1-.76-.35l-7.28-8.57a1,1,0,0,1,1.53-1.29l7.28,8.56a1,1,0,0,1-.77,1.65Z" fill="#454244"/></g><g transform="translate(-43.649 794.292)"><path d="M289.5,458.33V403.39a1.56,1.56,0,0,0-1.39-1.54,95.719,95.719,0,0,1-84-84,1.561,1.561,0,0,0-1.54-1.39H147.69a2.94,2.94,0,0,0-2.93,3.16A155,155,0,0,0,286.39,461.26a2.94,2.94,0,0,0,3.11-2.93Z" fill="#f65819" fill-rule="evenodd"/><path d="M286.18,463.26h.39a4.907,4.907,0,0,0,3.31-1.28,5,5,0,0,0,1.6-3.65V403.39a3.552,3.552,0,0,0-3.16-3.52,93.739,93.739,0,0,1-82.26-82.26,3.552,3.552,0,0,0-3.52-3.16H147.62a5,5,0,0,0-3.64,1.6,4.92,4.92,0,0,0-1.29,3.72A157,157,0,0,0,286.18,463.26ZM146.99,318.76a1,1,0,0,1,.7-.31h54.52a97.709,97.709,0,0,0,85.34,85.34v54.52a.939.939,0,0,1-1,.95,153,153,0,0,1-139.8-139.81A.91.91,0,0,1,146.99,318.76Z" fill="#372168" fill-rule="evenodd"/><path d="M218.79,248.33l-45.37-31.44a2.389,2.389,0,0,0-3.36.62,153.991,153.991,0,0,0-25.4,73.53,2.39,2.39,0,0,0,2.4,2.57h55.39a1.691,1.691,0,0,0,1.67-1.5,95.2,95.2,0,0,1,15.11-41.46A1.691,1.691,0,0,0,218.79,248.33Z" fill="#f9f4f0" fill-rule="evenodd"/><path d="M147.06,295.6h55.39a3.68,3.68,0,0,0,3.68-3.27,93.811,93.811,0,0,1,14.8-40.59,3.661,3.661,0,0,0-1-5.06l-45.37-31.45a4.39,4.39,0,0,0-6.16,1.16,156.624,156.624,0,0,0-25.74,74.48,4.419,4.419,0,0,0,4.4,4.73Zm24.91-77.15h.08a.36.36,0,0,1,.23.07l45.11,31.27a97.862,97.862,0,0,0-15.23,41.81h-55.1a.425.425,0,0,1-.31-.13.4.4,0,0,1-.1-.29,152.634,152.634,0,0,1,25.07-72.57A.484.484,0,0,1,171.97,218.45Z" fill="#372168" fill-rule="evenodd"/><path d="M289.49,207.17V149.83a1.171,1.171,0,0,0-1.25-1.17,154.449,154.449,0,0,0-101.53,48,1.18,1.18,0,0,0,.19,1.77l47.8,33.14a1,1,0,0,0,1.2-.07,95.089,95.089,0,0,1,52.72-23.33A1,1,0,0,0,289.49,207.17Z" fill="#e2deda" fill-rule="evenodd"/><path d="M233.56,233.18a2.933,2.933,0,0,0,1.69.53,3,3,0,0,0,1.98-.71,92.832,92.832,0,0,1,51.6-22.83,3,3,0,0,0,2.66-3V149.83a3.181,3.181,0,0,0-3.39-3.17,156.31,156.31,0,0,0-102.84,48.59,3.169,3.169,0,0,0,.5,4.79Zm-44.719-35.862-.011-.008v.02ZM235.18,229.44l-46.339-32.122A152.293,152.293,0,0,1,287.49,150.71v55.55A96.775,96.775,0,0,0,235.18,229.44Z" fill="#372168" fill-rule="evenodd"/><path d="M455.55,316.45h-55a3.26,3.26,0,0,0-3.24,2.81,95.742,95.742,0,0,1-82.42,82.42,3.259,3.259,0,0,0-2.81,3.24v55a1.43,1.43,0,0,0,1.52,1.43A155,155,0,0,0,457,317.95a1.431,1.431,0,0,0-1.45-1.5Z" fill="#454244" fill-rule="evenodd"/><path d="M310.05,459.95a3.44,3.44,0,0,0,3.43,3.43l.21-.05A157,157,0,0,0,458.93,318.15a3.439,3.439,0,0,0-3.41-3.67h-55a5.27,5.27,0,0,0-5.23,4.55,93.61,93.61,0,0,1-80.69,80.69,5.27,5.27,0,0,0-4.55,5.23Zm89.17-140.43a1.259,1.259,0,0,1,1.26-1.07l54.41-.01A153,153,0,0,1,314.01,459.33V404.92a1.26,1.26,0,0,1,1.07-1.26A97.64,97.64,0,0,0,399.22,319.52Z" fill="#372168" fill-rule="evenodd"/><path d="M400.34,183.15a154.693,154.693,0,0,1,56.54,107.72,2.549,2.549,0,0,1-2.55,2.73H400.21a3,3,0,0,1-2.91-2.6,95.71,95.71,0,0,0-82.61-82.67,3,3,0,0,1-2.6-2.91V151.33a2.541,2.541,0,0,1,2.73-2.54,154.064,154.064,0,0,1,65.3,20.36" fill="#8bcbc9" fill-rule="evenodd"/><path d="M400.34,183.15a154.693,154.693,0,0,1,56.54,107.72,2.549,2.549,0,0,1-2.55,2.73H400.21a3,3,0,0,1-2.91-2.6,95.71,95.71,0,0,0-82.61-82.67,3,3,0,0,1-2.6-2.91V151.33a2.541,2.541,0,0,1,2.73-2.54,154.064,154.064,0,0,1,65.3,20.36" fill="#f9f4f0" fill-rule="evenodd"/><path d="M454.33,295.6H400.21a5,5,0,0,1-4.89-4.34,93.55,93.55,0,0,0-80.92-80.93,5,5,0,0,1-4.35-4.89V151.33a4.6,4.6,0,0,1,1.47-3.35,4.513,4.513,0,0,1,3.42-1.19,155.314,155.314,0,0,1,66.15,20.63,2,2,0,0,1-2,3.46,151.291,151.291,0,0,0-64.45-20.1.563.563,0,0,0-.4.14.579.579,0,0,0-.18.41v54.13a.941.941,0,0,0,.85.92,97.571,97.571,0,0,1,84.39,84.39.941.941,0,0,0,.92.85h54.12a.539.539,0,0,0,.41-.18.48.48,0,0,0,.14-.4,153.562,153.562,0,0,0-55.81-106.32,2,2,0,0,1,2.53-3.1,157.61,157.61,0,0,1,57.27,109.11,4.5,4.5,0,0,1-1.19,3.42A4.579,4.579,0,0,1,454.33,295.6Z" fill="#372168"/><path d="M283.45,336.88a2,2,0,0,1-1.7-3.06l36.2-58.36a2,2,0,0,1,3.4,2.11l-36.2,58.36A2,2,0,0,1,283.45,336.88Z" fill="#d8d3da"/><path d="M275.25,287.2c0,8.33,4.61,14.86,10.5,14.86s10.5-6.54,10.5-14.86-4.61-14.85-10.5-14.85S275.25,278.87,275.25,287.2Zm4,0c0-5.85,2.98-10.85,6.5-10.85v-.02c3.52,0,6.5,5.01,6.5,10.87s-3,10.86-6.5,10.86S279.25,293.05,279.25,287.2Z" fill="#d8d3da" fill-rule="evenodd"/><path d="M304.68,327.53c0,8.33,4.61,14.85,10.5,14.85s10.5-6.52,10.5-14.85-4.61-14.85-10.5-14.85S304.68,319.2,304.68,327.53Zm4,0c0-5.85,2.98-10.85,6.5-10.85s6.5,5,6.5,10.85-3,10.85-6.5,10.85S308.68,333.38,308.68,327.53Z" fill="#d8d3da" fill-rule="evenodd"/><path d="M397.09,396.33a1,1,0,0,1-.76-.35l-12.71-15a1,1,0,0,1,1.52-1.3l12.71,15a1,1,0,0,1-.76,1.65Z" fill="#372168"/><path d="M396.29,385.56a1,1,0,0,1-.76-.35l-3.13-3.69a1,1,0,1,1,1.52-1.3l3.13,3.69a1,1,0,0,1-.76,1.65Z" fill="#372168"/><path d="M388.57,396.09a1,1,0,0,1-.76-.36l-6.79-8a1,1,0,0,1,1.53-1.3l6.79,8a1,1,0,0,1-.77,1.65Z" fill="#372168"/><path d="M423.51,160.58a1.5,1.5,0,0,1-.51-2.91l8.34-3a1.5,1.5,0,1,1,1,2.83l-8.34,3A1.511,1.511,0,0,1,423.51,160.58Z" fill="#372168"/><path d="M408.15,147.98H408a1.5,1.5,0,0,1-1.31-1.65l.81-8.26a1.507,1.507,0,1,1,3,.29l-.8,8.26A1.5,1.5,0,0,1,408.15,147.98Z" fill="#372168"/><path d="M416.2,153.12a1.466,1.466,0,0,1-.93-.33,1.49,1.49,0,0,1-.24-2.1l5.64-7.1a1.5,1.5,0,1,1,2.35,1.87l-5.65,7.09A1.492,1.492,0,0,1,416.2,153.12Z" fill="#372168"/></g><g transform="translate(793.98 -48.09)"><path d="M484.36,405.78H115.52a1.5,1.5,0,0,1,0-3H484.36a1.5,1.5,0,0,1,0,3Z" fill="#d4d4d4"/><path d="M207.76,446.33a1.5,1.5,0,0,1-1.5-1.5V155.59a1.5,1.5,0,0,1,3,0V444.83A1.5,1.5,0,0,1,207.76,446.33Z" fill="#d4d4d4"/><path d="M254.07,446.33a1.5,1.5,0,0,1-1.5-1.5V155.59a1.5,1.5,0,1,1,3,0V444.83A1.5,1.5,0,0,1,254.07,446.33Z" fill="#d4d4d4"/><path d="M300.38,446.33a1.5,1.5,0,0,1-1.5-1.5V155.59a1.5,1.5,0,0,1,3,0V444.83A1.5,1.5,0,0,1,300.38,446.33Z" fill="#d4d4d4"/><path d="M346.68,446.33a1.5,1.5,0,0,1-1.5-1.5V155.59a1.5,1.5,0,1,1,3,0V444.83A1.5,1.5,0,0,1,346.68,446.33Z" fill="#d4d4d4"/><path d="M485.61,206.61H115.52a1.5,1.5,0,1,1,0-3H485.61a1.5,1.5,0,0,1,0,3Z" fill="#d4d4d4"/><path d="M485.61,255.75H115.52a1.5,1.5,0,0,1,0-3H485.61a1.5,1.5,0,0,1,0,3Z" fill="#d4d4d4"/><path d="M485.61,307.46H115.52a1.5,1.5,0,0,1,0-3H485.61a1.5,1.5,0,0,1,0,3Z" fill="#d4d4d4"/><path d="M485.61,359.17H115.52a1.5,1.5,0,0,1,0-3H485.61a1.5,1.5,0,0,1,0,3Z" fill="#d8d3da"/><path d="M392.99,446.33a1.5,1.5,0,0,1-1.5-1.5V155.59a1.5,1.5,0,0,1,3,0V444.83A1.5,1.5,0,0,1,392.99,446.33Z" fill="#d4d4d4"/><path d="M439.3,446.33a1.5,1.5,0,0,1-1.5-1.5V155.59a1.5,1.5,0,1,1,3,0V444.83A1.5,1.5,0,0,1,439.3,446.33Z" fill="#d4d4d4"/><path d="M161.45,446.33a1.5,1.5,0,0,1-1.5-1.5V155.59a1.5,1.5,0,0,1,3,0V444.83A1.5,1.5,0,0,1,161.45,446.33Z" fill="#d4d4d4"/><path d="M115.52,446.33H485.61a1.5,1.5,0,0,0,1.5-1.5V155.59a1.5,1.5,0,0,0-1.5-1.5H115.52a1.5,1.5,0,0,0-1.5,1.5V444.83A1.5,1.5,0,0,0,115.52,446.33Zm368.59-3H117.02V157.09H484.11Z" fill="#d4d4d4" fill-rule="evenodd"/><path d="M416.91,244.59a2,2,0,0,1-1.77-2.94l.09-.16c16.53-31.08,33.62-63.22,68.67-71.75a2,2,0,1,1,.94,3.88c-33.3,8.11-50,39.45-66.08,69.75l-.08.16A2,2,0,0,1,416.91,244.59Z" fill="#454244"/><path d="M116.76,377.7a2.676,2.676,0,0,1-.4,0,2,2,0,0,1-1.56-2.36,276.107,276.107,0,0,1,21-59.82c19.77-39.71,45.92-61.45,75.63-62.88,2.87-.47,39.18-5.74,85.29,23.21,23.25,14.61,43.69,21.48,60.73,20.43s31.43-10.29,42.34-27.44c1.93-3,3.89-6.31,6-10a2,2,0,1,1,3.47,2c-2.15,3.79-4.15,7.13-6.11,10.2-12.48,19.61-28.91,29.42-49.12,29.43q-25.69,0-59.46-21.17c-45.73-28.72-82.23-22.7-82.6-22.64a1.044,1.044,0,0,1-.25,0c-19.67.91-48.19,12.16-72.32,60.6a272.1,272.1,0,0,0-20.73,58.91A2,2,0,0,1,116.76,377.7Z" fill="#454244"/><path d="M310.73,391.93c-1,0-2.06,0-3.11-.05-33.38-1-60.57-12.22-100.82-66.27-10.65-14.3-29-32.6-56-38.61-16.19-3.59-28-1-28.11-1a2,2,0,1,1-.88-3.9c.51-.11,12.63-2.78,29.65,1,15.63,3.44,38.49,13.19,58.59,40.17,39.28,52.75,65.58,63.66,97.74,64.66,35.73,1.12,61.77-18.06,84.34-62.19a2,2,0,1,1,3.57,1.82C372.93,371.93,346.63,391.93,310.73,391.93Z" fill="#454244"/><path d="M205.13,266.6a12,12,0,1,0-12-12A12,12,0,0,0,205.13,266.6Z" fill="#e2deda" fill-rule="evenodd"/><path d="M191.13,254.6a14,14,0,1,0,14-14A14,14,0,0,0,191.13,254.6Zm4,0a10,10,0,0,1,10-10v-.01a10.005,10.005,0,1,1-10,10.01Z" fill="#454244" fill-rule="evenodd"/><path d="M442.24,208.44a12,12,0,1,0-12-12A12,12,0,0,0,442.24,208.44Z" fill="#8bcbc9" fill-rule="evenodd"/><path d="M442.24,208.44a12,12,0,1,0-12-12A12,12,0,0,0,442.24,208.44Z" fill="#f65819" fill-rule="evenodd"/><path d="M428.24,196.44a14,14,0,1,0,14-14A14,14,0,0,0,428.24,196.44Zm4,0a10,10,0,1,1,10,10A10,10,0,0,1,432.24,196.44Z" fill="#454244" fill-rule="evenodd"/><path d="M241.14,375.7a12,12,0,1,0-12-12A12,12,0,0,0,241.14,375.7Z" fill="#454244" fill-rule="evenodd"/><path d="M227.13,363.7a14,14,0,1,0,14-14A14,14,0,0,0,227.13,363.7Zm4,0a10,10,0,0,1,10-10v-.01a10.005,10.005,0,1,1-10,10.01Z" fill="#454244" fill-rule="evenodd"/></g></g></svg>