<svg xmlns="http://www.w3.org/2000/svg" width="351.61" height="293.804" viewBox="0 0 351.61 293.804"><g transform="translate(-74.23 -103.116)"><path d="M395.77,219.55v84.49a51.7,51.7,0,0,1-51.69,51.7H303.49a42.72,42.72,0,0,0-31.44,13.79l-22.23,24.19a3.75,3.75,0,0,1-5.53,0l-22.24-24.17a42.722,42.722,0,0,0-31.45-13.83H150a51.69,51.69,0,0,1-51.69-51.69V182.13a51.7,51.7,0,0,1,51.7-51.7h194a51.7,51.7,0,0,1,51.69,51.7v19.59" fill="#f9f4f0"/><path d="M247.05,396.92a5.759,5.759,0,0,1-4.23-1.86L220.6,370.88a40.839,40.839,0,0,0-30-13.16H150a53.749,53.749,0,0,1-53.69-53.69V182.13a53.76,53.76,0,0,1,53.7-53.7h194a53.751,53.751,0,0,1,53.69,53.7v19.59a2,2,0,0,1-4,0V182.13a49.751,49.751,0,0,0-49.69-49.7h-194a49.76,49.76,0,0,0-49.7,49.7V304.05a49.75,49.75,0,0,0,49.71,49.67H190.6a44.8,44.8,0,0,1,32.9,14.44l22.24,24.17a1.756,1.756,0,0,0,2.59,0l22.27-24.15a44.841,44.841,0,0,1,32.89-14.46h40.59a49.751,49.751,0,0,0,49.69-49.7V219.55a2,2,0,0,1,4,0v84.49a53.751,53.751,0,0,1-53.69,53.7H303.49a40.808,40.808,0,0,0-30,13.14l-22.24,24.18A5.777,5.777,0,0,1,247.05,396.92Z" fill="#454244"/><path d="M324.76,260.05c-12.91,27.09-63.09,61.73-75.11,69.76a4.669,4.669,0,0,1-5.19,0c-12-8-62.21-42.67-75.12-69.76-14.69-30.83-3.39-51.18,3.39-60.22s23.74-20.91,45.78-19.21c11.6.89,21.64,7.09,28.54,12.77,6.91-5.68,16.94-11.88,28.54-12.77,22-1.7,39,10.17,45.79,19.21S339.46,229.22,324.76,260.05Z" fill="#f65819" fill-rule="evenodd"/><path d="M275.61,180.62c1.44-.11,2.86-.17,4.25-.17,19.96,0,35.19,10.93,41.54,19.38,6.77,9.04,18.08,29.39,3.38,60.22-12.91,27.09-63.11,61.76-75.11,69.76a4.658,4.658,0,0,1-5.19,0c-12.02-8.03-62.21-42.67-75.12-69.76-14.69-30.83-3.39-51.22,3.39-60.22,6.34-8.45,21.54-19.38,41.54-19.38,1.39,0,2.81.06,4.24.17,11.6.89,21.64,7.09,28.54,12.77C253.98,187.71,264.01,181.51,275.61,180.62Zm42.56,21.61c-4.949-6.6-18.6-17.776-38.32-17.78h0c-1.307,0-2.623.05-3.93.16-10.82.87-20.3,6.87-26.3,11.87a4,4,0,0,1-5.09,0c-6.03-4.96-15.49-11.05-26.3-11.87a32.532,32.532,0,0,0-3.94-.16c-19.75,0-33.34,11.18-38.34,17.78-11.91,15.85-12.94,35.25-3,56.1,12.58,26.39,63.65,61.39,73.75,68.15a.631.631,0,0,0,.37.12.641.641,0,0,0,.38-.12c10.1-6.75,61.14-41.75,73.72-68.15C331.09,237.48,330.06,218.09,318.17,202.23Z" fill="#454244" fill-rule="evenodd"/><path d="M308.71,204.98a1,1,0,0,1-.8-.4,25.331,25.331,0,0,0-14.44-8.66,1.022,1.022,0,1,1,.42-2,27,27,0,0,1,15.62,9.41,1.067,1.067,0,0,1-.8,1.65Z" fill="#454244"/><path d="M247.05,260.44a1,1,0,0,1-.61-.2l-9.38-7.21a1,1,0,0,1,1.22-1.58l9.38,7.2a1,1,0,0,1-.61,1.79Z" fill="#454244"/><path d="M256.43,258.64a1,1,0,0,1-.6-.2l-18.77-14.41a1,1,0,1,1,1.22-1.59l18.77,14.41a1,1,0,0,1-.62,1.79Z" fill="#454244"/><path d="M256.43,249.46a1,1,0,0,1-.6-.21l-5.17-4a1,1,0,1,1,1.22-1.59l5.17,4a1,1,0,0,1-.62,1.8Z" fill="#454244"/><path d="M377.43,166.89a1,1,0,0,1-.92-.61A28.758,28.758,0,0,0,363.4,152a1,1,0,1,1,.93-1.77,30.766,30.766,0,0,1,14,15.28,1,1,0,0,1-.53,1.31A1.061,1.061,0,0,1,377.43,166.89Z" fill="#454244"/><path d="M132.07,334.98a.994.994,0,0,1-.46-.11,30.809,30.809,0,0,1-14-15.28,1,1,0,0,1,1.84-.78,28.821,28.821,0,0,0,13.11,14.29,1,1,0,0,1-.47,1.88Z" fill="#454244"/><path d="M112.99,106.88a1.009,1.009,0,0,1-.27-2,51.92,51.92,0,0,1,9.84-1.76,1,1,0,1,1,.17,1.99,50.4,50.4,0,0,0-9.47,1.69A.825.825,0,0,1,112.99,106.88Z" fill="#454244"/><path d="M75.23,156.72a1,1,0,0,1-1-1,52.671,52.671,0,0,1,27.76-46.43,1,1,0,1,1,.95,1.76,50.68,50.68,0,0,0-26.71,44.67A1,1,0,0,1,75.23,156.72Z" fill="#454244"/><path d="M377.43,379.42a1,1,0,0,1-.08-2,50.839,50.839,0,0,0,13.25-2.92,1,1,0,1,1,.68,1.88,52.615,52.615,0,0,1-13.77,3Z" fill="#454244"/><path d="M401.14,371.37a1,1,0,0,1-.54-1.84,50.55,50.55,0,0,0,23.24-42.63,1,1,0,0,1,2,0,52.541,52.541,0,0,1-24.16,44.31A1,1,0,0,1,401.14,371.37Z" fill="#454244"/><path d="M167.49,140.12a1,1,0,0,1-1-1v-7.4a1,1,0,0,1,2,0v7.44A1,1,0,0,1,167.49,140.12Z" fill="#454244"/><path d="M177.45,152.11a1,1,0,0,1-1-1V131.72a1,1,0,0,1,2,0v19.43A1,1,0,0,1,177.45,152.11Z" fill="#454244"/></g></svg>