<svg xmlns="http://www.w3.org/2000/svg" width="443.049" height="173.512" viewBox="0 0 443.049 173.512"><g transform="translate(-111.808 420.088)"><path d="M243.865-285.075a183.265,183.265,0,0,1-10.531,17.824,55.8,55.8,0,0,1-9.951,11.5q-4.878,4.056-9.9,4.057a4.981,4.981,0,0,1-4.2-1.691,6.678,6.678,0,0,1-1.3-4.2q0-4.154,2.995-10.24a64.349,64.349,0,0,1,8.6-12.753,103.722,103.722,0,0,1,13.671-13.284A112.68,112.68,0,0,1,251.351-305.9l4.155-2.221q-6.182,12.654-11.641,23.041Zm47.532-76.37q4.1-8.79,8.164-16.955t7.824-15.023l-3.284-1.643c-.88,1.285-1.725,2.531-2.56,3.765-.893,1.12-1.812,2.227-2.776,3.293a72.347,72.347,0,0,1-35.207,21.375c-18.027,4.649-37.3,2.1-55.943-.365q-2.808-.372-5.607-.735c-20-2.572-43.025-4.528-63.155,4.881-10.206,4.772-18.767,12.075-27.046,19.137l3.116,3.652c8.036-6.856,16.346-13.945,25.964-18.44,18.964-8.865,41.177-6.956,60.509-4.469q2.79.358,5.589.732c19.1,2.525,38.84,5.137,57.771.255A76.567,76.567,0,0,0,290.206-374c-2.073,3.287-4,6.416-5.765,9.363q-3.818,6.376-6.86,11.931t-5.844,11.063q-2.8,5.506-5.507,11.207t-5.893,12.269A197.979,197.979,0,0,0,235.846-304.4a112.584,112.584,0,0,0-18.163,14.781,61.4,61.4,0,0,0-11.3,15.507,35.879,35.879,0,0,0-3.912,16.036,13.525,13.525,0,0,0,.917,5.267,9.537,9.537,0,0,0,2.464,3.525,10.649,10.649,0,0,0,3.429,2.029,11.529,11.529,0,0,0,3.912.676q5.026,0,10.917-3.429a61.027,61.027,0,0,0,11.932-9.372,109.6,109.6,0,0,0,11.835-13.96,142.985,142.985,0,0,0,10.627-17.2q2.8-5.412,5.991-12.125T271.157-317q9.564-5.7,17.245-11.111a155.478,155.478,0,0,0,13.864-10.917,115.422,115.422,0,0,0,11.157-11.352,128.2,128.2,0,0,0,9.323-12.415l-3.477-2.7q-3.092,4.832-6.956,9.757a93.64,93.64,0,0,1-9.081,9.9,118.533,118.533,0,0,1-12.125,10A154.045,154.045,0,0,1,275.118-325.8q3.96-8.7,8.067-17.776t8.212-17.873" fill="#e44e13"/><path d="M310.727-403.664a7.178,7.178,0,0,0,4.348-1.835,21.2,21.2,0,0,0,4.251-4.637,9.233,9.233,0,0,0,1.836-5.121,4.835,4.835,0,0,0-1.4-3.284,4.56,4.56,0,0,0-3.527-1.547,5.388,5.388,0,0,0-3.477,1.353,13.435,13.435,0,0,0-2.851,3.284,17.866,17.866,0,0,0-1.884,4.059,12.416,12.416,0,0,0-.676,3.671,4.748,4.748,0,0,0,.869,2.849,2.9,2.9,0,0,0,2.512,1.208" fill="#e44e13"/><path d="M554.239-358.575c-21.677,2.817-46.656,4.24-67.533-6.587-3.6-1.865-7.107-4.127-10.5-6.315-2.465-1.588-5.016-3.229-7.62-4.739a96.208,96.208,0,0,0-18.016-8.085c-9.117-3.009-26.431-6.725-39.956,2.195-6.532,4.308-10.945,10.74-14.372,16.871l-.024-.017q-1.836,3-4.251,6.617t-5.169,7.343q-2.752,3.72-5.7,7.247t-5.749,6.279a39.672,39.672,0,0,1-5.265,4.444,7.973,7.973,0,0,1-4.3,1.691,7.878,7.878,0,0,1-1.739-.193,3.582,3.582,0,0,1-1.595-.821,4.323,4.323,0,0,1-1.159-1.739,7.89,7.89,0,0,1-.435-2.849,20,20,0,0,1,1.545-7.44,65.044,65.044,0,0,1,3.816-7.873q2.27-4.008,4.976-8.211t4.975-8.551a65.747,65.747,0,0,0,3.817-8.792,27.23,27.23,0,0,0,1.545-8.984,18.054,18.054,0,0,0-.484-4.107,10.573,10.573,0,0,0-1.739-3.816,9.114,9.114,0,0,0-3.381-2.8,12.09,12.09,0,0,0-5.411-1.063,25.3,25.3,0,0,0-7.148,1.111,40.1,40.1,0,0,0-8.695,4.009A69.269,69.269,0,0,0,341.63-383.27a154.323,154.323,0,0,0-12.172,13.863l21.931-44.053-3.381-1.353q-9.47,15.846-16.859,28.452t-13.671,23.573Q311.2-351.822,305.6-341.776t-11.4,20.723q-5.8,10.674-12.173,22.752t-14.3,27.051l10.531,5.991q.1-.1,1.3-2.512t3.332-6.667q2.128-4.252,5.024-10t6.328-12.705q3.43-6.954,7.295-14.732t7.921-16.085q.1-.1,1.595-2.947t4.2-7.536q2.706-4.684,6.424-10.579T329.8-361.05q4.4-6.134,9.324-12.028a101.171,101.171,0,0,1,10.047-10.483,53.689,53.689,0,0,1,10.337-7.391,21.4,21.4,0,0,1,10.144-2.8,4.691,4.691,0,0,1,3.285,1.353,5.024,5.024,0,0,1,1.449,3.864,15.167,15.167,0,0,1-.869,5.265,25.864,25.864,0,0,1-2.753,5.216q-1.884,2.852-4.783,6.667t-6.859,9.516a47.236,47.236,0,0,0-6.521,12.365,32.593,32.593,0,0,0-1.692,9.565,15.3,15.3,0,0,0,1.064,5.989,11.575,11.575,0,0,0,2.8,4.107,11.162,11.162,0,0,0,4.057,2.367,15.19,15.19,0,0,0,4.831.773,15.616,15.616,0,0,0,7.488-2.077,39.9,39.9,0,0,0,7.487-5.363,68.548,68.548,0,0,0,7-7.293q3.334-4.008,6.135-8.019,2.22-3.176,3.977-6.015v.007l.093-.157c.276-.444.551-.889.809-1.323.008-.012.024-.044.033-.059,2.792-4.516,11.321-17.727,18.019-21.94,11.673-6.6,26.4-3.428,34.36-.8a91.383,91.383,0,0,1,17.115,7.681c2.507,1.452,5.008,3.063,7.428,4.621,3.488,2.247,7.1,4.571,10.892,6.539,13.4,6.951,28.216,9.147,42.808,9.147a214.427,214.427,0,0,0,27.553-2.06l-.619-4.76" fill="#e44e13"/></g></svg>